<svg version="1.1" xmlns="http://www.w3.org/2000/svg" viewBox="0 0 4368.776411669302 2207.8723173909025" width="13106.329235007906" height="6623.616952172708">
  <!-- svg-source:excalidraw -->
  
  <defs>
    <style class="style-fonts">
      @font-face {
        font-family: "Virgil";
        src: url("https://excalidraw.com/Virgil.woff2");
      }
      @font-face {
        font-family: "Cascadia";
        src: url("https://excalidraw.com/Cascadia.woff2");
      }
    </style>
  </defs>
  <rect x="0" y="0" width="4368.776411669302" height="2207.8723173909025" fill="#ffffff"></rect><g stroke-linecap="round" transform="translate(1132.6360079857711 10) rotate(0 168.18181818181824 63.18181818181819)"><path d="M31.59 0 M31.59 0 C108.64 0.95, 183.08 2.84, 304.77 0 M31.59 0 C107.26 0.45, 179.55 -0.28, 304.77 0 M304.77 0 C329.52 -2.81, 336.39 7.67, 336.36 31.59 M304.77 0 C322.78 2.72, 336.33 5.99, 336.36 31.59 M336.36 31.59 C338.85 51.34, 339.92 70.78, 336.36 94.77 M336.36 31.59 C336.31 50.74, 336.33 68.32, 336.36 94.77 M336.36 94.77 C335.37 117.81, 327.94 128.3, 304.77 126.36 M336.36 94.77 C335.68 111.46, 326.99 124.19, 304.77 126.36 M304.77 126.36 C196.59 126.04, 87.98 125.74, 31.59 126.36 M304.77 126.36 C234.03 128.16, 164.7 126.46, 31.59 126.36 M31.59 126.36 C10.74 127.18, -3.16 113.16, 0 94.77 M31.59 126.36 C10.9 125.29, -3.57 112.57, 0 94.77 M0 94.77 C-3.93 70.49, 2.43 48.73, 0 31.59 M0 94.77 C0.06 78.56, -0.16 65.91, 0 31.59 M0 31.59 C2.11 8.27, 9.89 -0.51, 31.59 0 M0 31.59 C1.91 14.16, 12.57 1.47, 31.59 0" stroke="#000000" stroke-width="1" fill="none"></path></g><g transform="translate(1222.3178261675894 48.18181818181819) rotate(0 78.5 25)"><text x="78.5" y="18" font-family="Virgil, Segoe UI Emoji" font-size="20px" fill="#000000" text-anchor="middle" style="white-space: pre;" direction="ltr">Request to</text><text x="78.5" y="43" font-family="Virgil, Segoe UI Emoji" font-size="20px" fill="#000000" text-anchor="middle" style="white-space: pre;" direction="ltr">*.finsweet.com/*</text></g><g stroke-linecap="round" transform="translate(1163.1269975271919 274.73930267743566) rotate(0 137.6313914058735 113.61517545585525)"><path d="M140.23 -2 C179.06 32.64, 223.99 71.92, 278.69 113.4 M138.15 -0.89 C192.73 46.9, 244.23 89.15, 276.4 115.78 M278.06 112.3 C221.21 154.27, 174.06 191.04, 134.84 229.89 M274.39 112.2 C221.62 158.39, 170.53 202.3, 136.32 227.17 M138.96 223.74 C82.9 184.27, 30.97 140.49, -2.64 111.31 M137.06 228.06 C103.09 201.26, 69.12 169.38, -0.74 113.8 M3.73 115.44 C37.53 86.1, 78.09 54.95, 140.24 3.55 M1.17 112.2 C32.05 86.72, 66.43 57.64, 138.83 0.58" stroke="#000000" stroke-width="1" fill="none"></path></g><g transform="translate(1240.2583889330654 363.3544781332909) rotate(0 60.5 25)"><text x="60.5" y="18" font-family="Virgil, Segoe UI Emoji" font-size="20px" fill="#000000" text-anchor="middle" style="white-space: pre;" direction="ltr">Hostname is</text><text x="60.5" y="43" font-family="Virgil, Segoe UI Emoji" font-size="20px" fill="#000000" text-anchor="middle" style="white-space: pre;" direction="ltr">finsweet.com</text></g><g stroke-linecap="round"><g transform="translate(1299.8346883196032 138.03161188502446) rotate(0 1.1558950336502676 71.07733010268274)"><path d="M0.25 2.78 C0.76 26.55, 4.08 117.98, 5.38 140.33 M-3.06 1.83 C-3.24 25, 0.86 113.41, 2.55 136.28" stroke="#000000" stroke-width="1" fill="none"></path></g><g transform="translate(1299.8346883196032 138.03161188502446) rotate(0 1.1558950336502676 71.07733010268274)"><path d="M-5.33 107.17 C-2.68 121.49, -3.09 132.23, 5.88 132.7 M-10.69 108.97 C-4.9 115.91, -0.98 124.11, 2.03 136.04" stroke="#000000" stroke-width="1" fill="none"></path></g><g transform="translate(1299.8346883196032 138.03161188502446) rotate(0 1.1558950336502676 71.07733010268274)"><path d="M15.16 106 C9.94 120.8, 1.67 131.99, 5.88 132.7 M9.8 107.79 C9.16 115.28, 6.67 123.84, 2.03 136.04" stroke="#000000" stroke-width="1" fill="none"></path></g></g><mask></mask><g stroke-linecap="round"><g transform="translate(1440.9235293237311 389.4397962308111) rotate(0 198.50085916805324 142.52362820770273)"><path d="M-1.13 -2.32 C65.63 45.11, 331.72 239.16, 398.13 287.37 M3.46 2.59 C70.16 50.36, 331.09 235.02, 396.46 283" stroke="#000000" stroke-width="1" fill="none"></path></g><g transform="translate(1440.9235293237311 389.4397962308111) rotate(0 198.50085916805324 142.52362820770273)"><path d="M364.26 276.36 C375.57 277.19, 381.12 280.58, 398.83 286.3 M368.36 273.84 C379.15 279.39, 388.51 281.59, 398.11 281.78" stroke="#000000" stroke-width="1" fill="none"></path></g><g transform="translate(1440.9235293237311 389.4397962308111) rotate(0 198.50085916805324 142.52362820770273)"><path d="M376.24 259.7 C385.33 263.98, 388.32 270.91, 398.83 286.3 M380.34 257.17 C386.33 268.93, 391.19 277.38, 398.11 281.78" stroke="#000000" stroke-width="1" fill="none"></path></g></g><mask></mask><g transform="translate(1525.1546672413488 504.01669330258557) rotate(0 17 12.5)"><text x="0" y="18" font-family="Virgil, Segoe UI Emoji" font-size="20px" fill="#000000" text-anchor="start" style="white-space: pre;" direction="ltr">Yes</text></g><g stroke-linecap="round" transform="translate(2451.113380450697 669.5328884032441) rotate(0 163.5 148)"><path d="M166.72 0.87 C227.49 55.98, 291.83 119.51, 326.6 150.02 M163.57 -0.42 C196.82 31.24, 230.53 62, 326.79 150.31 M326.18 149.59 C260.95 210.11, 196.67 266.9, 163.99 297.9 M326.92 147.99 C264.66 207.14, 199.32 267.26, 163.73 297.55 M162.12 296.01 C120.37 259, 77.04 218.59, 0.02 147.04 M164.19 294.42 C116.73 254.99, 69.44 211.81, 0.47 147.91 M-2.64 148 C56.02 96.99, 116.14 41.66, 163.14 0.78 M-1.49 148.78 C43.35 104.7, 91.23 64.01, 163.47 -1.03" stroke="#000000" stroke-width="1" fill="none"></path></g><g transform="translate(2487.113380450697 792.5328884032441) rotate(0 127.5 25)"><text x="127.5" y="18" font-family="Virgil, Segoe UI Emoji" font-size="20px" fill="#000000" text-anchor="middle" style="white-space: pre;" direction="ltr">Path matches a</text><text x="127.5" y="43" font-family="Virgil, Segoe UI Emoji" font-size="20px" fill="#000000" text-anchor="middle" style="white-space: pre;" direction="ltr">reverse proxied subdomain</text></g><g stroke-linecap="round" transform="translate(2993.0253520539004 709.1917075085094) rotate(0 224.3041012362728 99.34030494119645)"><path d="M0.88 0.95 C147.33 1.99, 296.02 1.76, 450.01 1.65 M-0.61 -0.78 C145.7 3.98, 294.11 3.49, 448.12 -0.03 M447.02 0 C450.69 66.75, 453.4 128.51, 445.46 195.43 M449.4 1.68 C451.25 61.7, 449.88 121.67, 447.16 197.44 M447.75 197.88 C310.02 195.49, 168.89 195.77, -0.24 197.53 M449.06 199.42 C346.26 202.65, 244.34 203.76, -0.97 197.93 M3.19 199.2 C2.71 158.29, 2.33 111.06, 3.9 -2.44 M0.43 198.31 C1.11 127.79, 1.65 55.79, 1.26 -0.45" stroke="#000000" stroke-width="1" fill="none"></path></g><g transform="translate(3032.329453290173 783.5320124497058) rotate(0 185 25)"><text x="185" y="18" font-family="Virgil, Segoe UI Emoji" font-size="20px" fill="#000000" text-anchor="middle" style="white-space: pre;" direction="ltr">Fetch the requested path</text><text x="185" y="43" font-family="Virgil, Segoe UI Emoji" font-size="20px" fill="#000000" text-anchor="middle" style="white-space: pre;" direction="ltr">from the subdomain's Webflow project</text></g><g stroke-linecap="round"><g transform="translate(2773.844881052823 814.9812445796025) rotate(0 105.27599991032343 -2.1537100992871387)"><path d="M-2.38 0.85 C33.19 0.45, 177.35 -4.55, 212.93 -5.15 M1.53 -1.16 C36.98 -1.06, 177.28 -3.15, 211.95 -2.93" stroke="#000000" stroke-width="1" fill="none"></path></g><g transform="translate(2773.844881052823 814.9812445796025) rotate(0 105.27599991032343 -2.1537100992871387)"><path d="M185.03 10.81 C188.29 5.76, 199.63 2.37, 215.54 -5.5 M183.9 6.41 C190.82 2.16, 200.39 -1.04, 212.96 -2.23" stroke="#000000" stroke-width="1" fill="none"></path></g><g transform="translate(2773.844881052823 814.9812445796025) rotate(0 105.27599991032343 -2.1537100992871387)"><path d="M184.91 -9.71 C187.8 -8.95, 199.17 -6.52, 215.54 -5.5 M183.79 -14.11 C190.45 -11.93, 200.06 -8.69, 212.96 -2.23" stroke="#000000" stroke-width="1" fill="none"></path></g></g><mask></mask><g stroke-linecap="round" transform="translate(2400.9814444804997 1129.0307418999964) rotate(0 224.3041012362728 99.34030494119645)"><path d="M1.16 -1.3 C133.17 1.65, 264.74 1.65, 449.42 0.18 M-0.35 0.94 C105.7 -2.77, 210.9 -1.49, 449.02 0.44 M449.69 -1.89 C446.49 72.87, 446.07 147.39, 448.04 201.03 M447.09 -0.32 C446.95 77.77, 449.19 154.04, 449.9 199.5 M447.05 200.04 C307.43 198.78, 164.86 198.06, 1.28 198.65 M448.77 199.63 C325.52 198.37, 204.28 197.58, 0.29 198.68 M2.74 195.79 C5.12 127.45, -2.59 58.4, 2.47 -0.31 M-1.8 200.4 C2.28 157.26, -0.92 112.68, -0.05 1.2" stroke="#000000" stroke-width="1" fill="none"></path></g><g transform="translate(2436.2855457167725 1203.3710468411932) rotate(0 189 25)"><text x="189" y="18" font-family="Virgil, Segoe UI Emoji" font-size="20px" fill="#000000" text-anchor="middle" style="white-space: pre;" direction="ltr">Return the requested path</text><text x="189" y="43" font-family="Virgil, Segoe UI Emoji" font-size="20px" fill="#000000" text-anchor="middle" style="white-space: pre;" direction="ltr">from the finsweet.com Webflow project</text></g><g stroke-linecap="round"><g transform="translate(2616.3609951800354 965.6439062227452) rotate(0 0.9864001672990526 73.48101757955709)"><path d="M-0.06 -0.47 C1.13 24.07, 4.52 122.48, 5.51 147 M-3.53 -3.2 C-2.51 21.77, 2.27 124.78, 3.63 150.16" stroke="#000000" stroke-width="1" fill="none"></path></g><g transform="translate(2616.3609951800354 965.6439062227452) rotate(0 0.9864001672990526 73.48101757955709)"><path d="M-8.68 123.48 C-6.47 130.7, -4.14 139.49, 0.53 146.72 M-6.6 120.97 C-2.75 133.65, 0.79 141.02, 2.74 151.75" stroke="#000000" stroke-width="1" fill="none"></path></g><g transform="translate(2616.3609951800354 965.6439062227452) rotate(0 0.9864001672990526 73.48101757955709)"><path d="M11.81 122.46 C9.06 129.92, 6.43 138.97, 0.53 146.72 M13.9 119.96 C10.28 133.25, 6.37 140.99, 2.74 151.75" stroke="#000000" stroke-width="1" fill="none"></path></g></g><mask></mask><g transform="translate(2853.1107089550783 762.169564240649) rotate(0 17 12.5)"><text x="0" y="18" font-family="Virgil, Segoe UI Emoji" font-size="20px" fill="#000000" text-anchor="start" style="white-space: pre;" direction="ltr">Yes</text></g><g transform="translate(2578.4930399707473 1023.3630149110492) rotate(0 13 12.5)"><text x="0" y="18" font-family="Virgil, Segoe UI Emoji" font-size="20px" fill="#000000" text-anchor="start" style="white-space: pre;" direction="ltr">No</text></g><g stroke-linecap="round" transform="translate(706.7861210222641 676.7637737602076) rotate(0 156.50040103831327 136.0016079552094)"><path d="M160.46 3.26 C209.38 46.42, 265.37 95.81, 312.56 135.43 M156.9 1.49 C197.57 36.49, 239.44 71.84, 312.49 137.75 M314.77 136.93 C256.21 189.29, 200 236.12, 160.32 272.64 M312.55 137 C263.46 181.83, 215.46 224.93, 157.18 271.96 M159.53 270.3 C103.46 225.88, 57.9 182.4, -0.9 139.18 M158.14 272.95 C110 230.39, 61.54 190.38, 1.53 138.32 M-1.98 139.87 C40.3 96.65, 83.99 65.6, 158.39 -1.41 M-0.14 138.67 C56.49 87.38, 111.84 41.03, 156 -0.26" stroke="#000000" stroke-width="1" fill="none"></path></g><g transform="translate(787.7865220605772 787.765381715417) rotate(0 75.5 25)"><text x="75.5" y="18" font-family="Virgil, Segoe UI Emoji" font-size="20px" fill="#000000" text-anchor="middle" style="white-space: pre;" direction="ltr">Subdomain is</text><text x="75.5" y="43" font-family="Virgil, Segoe UI Emoji" font-size="20px" fill="#000000" text-anchor="middle" style="white-space: pre;" direction="ltr">reverse proxied</text></g><g stroke-linecap="round"><g transform="translate(1160.4613369738515 392.82908512199316) rotate(0 -147.85236685422103 142.19639143926176)"><path d="M-0.66 -0.83 C-50.06 46.94, -248.38 240.48, -297.42 288.14 M4.17 -3.75 C-45.54 43.09, -249.92 235.51, -299.88 284.06" stroke="#000000" stroke-width="1" fill="none"></path></g><g transform="translate(1160.4613369738515 392.82908512199316) rotate(0 -147.85236685422103 142.19639143926176)"><path d="M-287.75 256.6 C-287.32 267.2, -295.1 269.13, -302.2 285.31 M-286.39 258.92 C-288.77 264.41, -293.48 268.47, -298.86 284.6" stroke="#000000" stroke-width="1" fill="none"></path></g><g transform="translate(1160.4613369738515 392.82908512199316) rotate(0 -147.85236685422103 142.19639143926176)"><path d="M-273.58 271.44 C-277.04 278.08, -288.53 276.1, -302.2 285.31 M-272.22 273.77 C-277.37 276.06, -285.15 276.91, -298.86 284.6" stroke="#000000" stroke-width="1" fill="none"></path></g></g><mask></mask><g transform="translate(1059.3256120029487 522.3719270486931) rotate(0 13 12.5)"><text x="0" y="18" font-family="Virgil, Segoe UI Emoji" font-size="20px" fill="#000000" text-anchor="start" style="white-space: pre;" direction="ltr">No</text></g><g stroke-linecap="round" transform="translate(10 722.1104303120622) rotate(0 224.50000000000003 99.34030494119645)"><path d="M-1.44 -1.64 C115.94 -2.79, 231.63 -5.71, 448.07 -0.87 M-0.17 -0.34 C128.39 1.55, 257.33 2, 449.13 -0.23 M447.44 -2.43 C450.61 58.71, 447.57 113.87, 450.61 202.14 M449.89 -0.58 C451.35 73.8, 449.73 148.42, 450.19 198.71 M447.63 200.57 C306.09 196.44, 161.43 195.87, -0.65 199.87 M448.51 197.87 C310.25 200.54, 170.36 200.71, 0.48 198.34 M-3.8 201.8 C-1.39 150, 2.31 97.38, 3.78 -1.55 M0.52 199.32 C3.07 118.48, 1.16 40.57, 1.19 0.85" stroke="#000000" stroke-width="1" fill="none"></path></g><g transform="translate(57.5 796.4507352532587) rotate(0 177.00000000000003 25)"><text x="177" y="18" font-family="Virgil, Segoe UI Emoji" font-size="20px" fill="#000000" text-anchor="middle" style="white-space: pre;" direction="ltr">Redirect to the correspondent path</text><text x="177" y="43" font-family="Virgil, Segoe UI Emoji" font-size="20px" fill="#000000" text-anchor="middle" style="white-space: pre;" direction="ltr">under finsweet.com/SUBDOMAIN/*</text></g><g stroke-linecap="round"><g transform="translate(709.5675155054669 814.1508875817807) rotate(0 -123.66854415748384 -1.3651470163138129)"><path d="M2.64 -0.45 C-38.38 -0.74, -205.88 -1.69, -247.29 -2.03 M0.63 -3.17 C-40.74 -3.14, -208.67 0.05, -249.98 0.44" stroke="#000000" stroke-width="1" fill="none"></path></g><g transform="translate(709.5675155054669 814.1508875817807) rotate(0 -123.66854415748384 -1.3651470163138129)"><path d="M-222.59 -11.44 C-232.29 -5.99, -240.26 -2.36, -247.12 -3.14 M-221.62 -11.37 C-229.85 -8.19, -238.12 -4.99, -251.16 -0.73" stroke="#000000" stroke-width="1" fill="none"></path></g><g transform="translate(709.5675155054669 814.1508875817807) rotate(0 -123.66854415748384 -1.3651470163138129)"><path d="M-222.29 9.08 C-232.03 9.22, -240.07 7.52, -247.12 -3.14 M-221.32 9.15 C-229.72 5.78, -238.08 2.44, -251.16 -0.73" stroke="#000000" stroke-width="1" fill="none"></path></g></g><mask></mask><g transform="translate(572.9483357104014 763.1295852864413) rotate(0 17 12.5)"><text x="0" y="18" font-family="Virgil, Segoe UI Emoji" font-size="20px" fill="#000000" text-anchor="start" style="white-space: pre;" direction="ltr">Yes</text></g><g transform="translate(49.0247084968658 32.85109745329112) rotate(0 171.5 150)"><text x="0" y="18" font-family="Virgil, Segoe UI Emoji" font-size="20px" fill="#000000" text-anchor="start" style="white-space: pre;" direction="ltr">Test cases:</text><text x="0" y="43" font-family="Virgil, Segoe UI Emoji" font-size="20px" fill="#000000" text-anchor="start" style="white-space: pre;" direction="ltr">- finsweet.com</text><text x="0" y="68" font-family="Virgil, Segoe UI Emoji" font-size="20px" fill="#000000" text-anchor="start" style="white-space: pre;" direction="ltr">- finsweet.com/agency</text><text x="0" y="93" font-family="Virgil, Segoe UI Emoji" font-size="20px" fill="#000000" text-anchor="start" style="white-space: pre;" direction="ltr">- finsweet.com/attributes</text><text x="0" y="118" font-family="Virgil, Segoe UI Emoji" font-size="20px" fill="#000000" text-anchor="start" style="white-space: pre;" direction="ltr">- finsweet.com/attributes/modal</text><text x="0" y="143" font-family="Virgil, Segoe UI Emoji" font-size="20px" fill="#000000" text-anchor="start" style="white-space: pre;" direction="ltr">- finsweet.com/attributes/combos</text><text x="0" y="168" font-family="Virgil, Segoe UI Emoji" font-size="20px" fill="#000000" text-anchor="start" style="white-space: pre;" direction="ltr">- finsweet.com/attributes/combos/1</text><text x="0" y="193" font-family="Virgil, Segoe UI Emoji" font-size="20px" fill="#000000" text-anchor="start" style="white-space: pre;" direction="ltr">- attributes.finsweet.com</text><text x="0" y="218" font-family="Virgil, Segoe UI Emoji" font-size="20px" fill="#000000" text-anchor="start" style="white-space: pre;" direction="ltr">- attributes.finsweet.com/modal</text><text x="0" y="243" font-family="Virgil, Segoe UI Emoji" font-size="20px" fill="#000000" text-anchor="start" style="white-space: pre;" direction="ltr">- attributes.combos.finsweet.com</text><text x="0" y="268" font-family="Virgil, Segoe UI Emoji" font-size="20px" fill="#000000" text-anchor="start" style="white-space: pre;" direction="ltr">- attributes.combos.finsweet.com/1</text><text x="0" y="293" font-family="Virgil, Segoe UI Emoji" font-size="20px" fill="#000000" text-anchor="start" style="white-space: pre;" direction="ltr">- cdn.finsweet.com</text></g><g stroke-linecap="round" transform="translate(1675.19921043094 673.2873118065653) rotate(0 163.5000000000001 148)"><path d="M167.44 2.27 C216.04 46.54, 263.67 89.65, 327.17 147.86 M165.24 -1.14 C208.37 44.96, 254.8 83.94, 325.8 149.63 M326.6 147.68 C270.39 207.19, 212.75 254.21, 163.64 295.87 M326.25 148.45 C293.11 181.96, 259.49 213.24, 162.51 296.88 M163.45 297.26 C94.32 237.52, 30.61 182.2, -2.3 146.96 M162.39 294.74 C130.69 265.37, 98.29 235.31, 1.43 150.17 M0.84 149.96 C62.74 90.35, 124.96 38.18, 162.43 3.26 M1.16 148.73 C40.83 116.72, 76.31 80.5, 163.78 1.68" stroke="#000000" stroke-width="1" fill="none"></path></g><g transform="translate(1774.1992104309402 796.2873118065653) rotate(0 64.5 25)"><text x="64.5" y="18" font-family="Virgil, Segoe UI Emoji" font-size="20px" fill="#000000" text-anchor="middle" style="white-space: pre;" direction="ltr">Path has a</text><text x="64.5" y="43" font-family="Virgil, Segoe UI Emoji" font-size="20px" fill="#000000" text-anchor="middle" style="white-space: pre;" direction="ltr">trailing slash</text></g><g stroke-linecap="round" transform="translate(1617.5525297830045 1126.5130482867103) rotate(0 224.5 99.34030494119645)"><path d="M0.03 -1.16 C101.39 2.03, 199.58 2.87, 448.2 0.67 M0.6 -0.5 C163.05 0.51, 325.42 0.05, 449.85 -0.13 M451.07 -1.32 C448.56 69.76, 447.99 149.57, 449.19 198.98 M447.18 1.55 C446.19 74.69, 445.26 150.69, 449.82 199.39 M448.63 199.01 C319.91 201.43, 191.03 198.77, 1.53 197.91 M448.51 199.25 C277.48 199.29, 107.4 198.87, 0.58 198.49 M-3.1 195.99 C0.62 124.06, -1.08 52.38, 3.32 0.36 M-0.4 199.35 C-3.27 135.02, -2.15 71.43, -1.75 -0.46" stroke="#000000" stroke-width="1" fill="none"></path></g><g transform="translate(1696.8566310192773 1200.8533532279066) rotate(0 145 25)"><text x="145" y="18" font-family="Virgil, Segoe UI Emoji" font-size="20px" fill="#000000" text-anchor="middle" style="white-space: pre;" direction="ltr">Redirect to the same target</text><text x="145" y="43" font-family="Virgil, Segoe UI Emoji" font-size="20px" fill="#000000" text-anchor="middle" style="white-space: pre;" direction="ltr">without trailing slash</text></g><g stroke-linecap="round"><g transform="translate(1839.8846718811756 964.3963549043838) rotate(0 0.501635953276832 77.2803166455459)"><path d="M-0.04 -0.17 C0.49 25.85, 3.74 128.26, 4.51 154.19 M-3.51 -2.72 C-3.41 23.86, 1.56 130.39, 2.68 157.28" stroke="#000000" stroke-width="1" fill="none"></path></g><g transform="translate(1839.8846718811756 964.3963549043838) rotate(0 0.501635953276832 77.2803166455459)"><path d="M-9.04 130.65 C-6.59 140.41, -0.83 151.65, 1.52 158.56 M-10.28 128.27 C-3.61 137.23, -0.9 147.85, 3.22 158.08" stroke="#000000" stroke-width="1" fill="none"></path></g><g transform="translate(1839.8846718811756 964.3963549043838) rotate(0 0.501635953276832 77.2803166455459)"><path d="M11.46 129.75 C6.75 139.82, 5.37 151.37, 1.52 158.56 M10.22 127.37 C10.33 137, 6.48 147.91, 3.22 158.08" stroke="#000000" stroke-width="1" fill="none"></path></g></g><mask></mask><g transform="translate(1769.19218845724 1020.8756484931658) rotate(0 17 12.5)"><text x="0" y="18" font-family="Virgil, Segoe UI Emoji" font-size="20px" fill="#000000" text-anchor="start" style="white-space: pre;" direction="ltr">Yes</text></g><g stroke-linecap="round"><g transform="translate(1998.1476782990658 815.2164859996857) rotate(0 231.7040299913017 6.166237897944427)"><path d="M1.79 -1.75 C78.95 0.84, 387.62 11.69, 464.08 14.09 M-0.68 3.46 C76.1 5.45, 384.63 9.66, 462.43 10.35" stroke="#000000" stroke-width="1" fill="none"></path></g><g transform="translate(1998.1476782990658 815.2164859996857) rotate(0 231.7040299913017 6.166237897944427)"><path d="M431.61 21.81 C447.23 13.06, 454.83 16.63, 459.52 12.83 M435.81 18.92 C443.69 15.45, 454.99 14.06, 461.2 8.51" stroke="#000000" stroke-width="1" fill="none"></path></g><g transform="translate(1998.1476782990658 815.2164859996857) rotate(0 231.7040299913017 6.166237897944427)"><path d="M431.85 1.29 C447.18 -0.46, 454.69 10.1, 459.52 12.83 M436.05 -1.6 C443.44 2.23, 454.65 8.13, 461.2 8.51" stroke="#000000" stroke-width="1" fill="none"></path></g></g><mask></mask><g transform="translate(2168.0094145409403 778.0740192273839) rotate(0 13 12.5)"><text x="0" y="18" font-family="Virgil, Segoe UI Emoji" font-size="20px" fill="#000000" text-anchor="start" style="white-space: pre;" direction="ltr">No</text></g><g stroke-linecap="round" transform="translate(3691.1133804506962 659.5328884032442) rotate(0 163.5 148)"><path d="M163.02 1.54 C211.15 37.21, 258.43 81.53, 323.65 151.09 M162.31 -1.29 C204.74 34.08, 242.95 68.06, 327.67 147.48 M326.05 147.35 C289.05 187.08, 250.92 225.8, 163.75 294.71 M327.83 147.5 C283.99 188.68, 236.72 228.8, 164.79 294.85 M163.53 293.41 C112.12 247.01, 67.62 205.38, 2.15 150.37 M164.3 296.28 C105.41 237.09, 41.11 184.48, 0.68 147.3 M1.03 151.25 C58.92 101.08, 112.45 45.7, 165.75 1.71 M1.45 148.57 C50.28 100.67, 100.13 56.4, 163.68 0.78" stroke="#000000" stroke-width="1" fill="none"></path></g><g transform="translate(3776.1133804506962 782.5328884032442) rotate(0 78.5 25)"><text x="78.5" y="18" font-family="Virgil, Segoe UI Emoji" font-size="20px" fill="#000000" text-anchor="middle" style="white-space: pre;" direction="ltr">Is the response</text><text x="78.5" y="43" font-family="Virgil, Segoe UI Emoji" font-size="20px" fill="#000000" text-anchor="middle" style="white-space: pre;" direction="ltr">redirected?</text></g><g stroke-linecap="round"><g transform="translate(3453.844881052823 810.1297060694363) rotate(0 120.93459842278185 0.8197938890575642)"><path d="M1.05 2.77 C41.88 2.87, 203.55 -0.33, 243.69 -1.13 M-1.82 1.8 C38.93 2.56, 202.25 2.73, 242.59 2.53" stroke="#000000" stroke-width="1" fill="none"></path></g><g transform="translate(3453.844881052823 810.1297060694363) rotate(0 120.93459842278185 0.8197938890575642)"><path d="M218.37 15.82 C221.82 10.4, 227.72 5.22, 240.39 4.94 M216.26 12.65 C223.14 11.11, 230.9 5.88, 243.69 0.58" stroke="#000000" stroke-width="1" fill="none"></path></g><g transform="translate(3453.844881052823 810.1297060694363) rotate(0 120.93459842278185 0.8197938890575642)"><path d="M218.34 -4.7 C221.54 -4.88, 227.45 -4.81, 240.39 4.94 M216.23 -7.87 C223.2 -2.69, 230.97 -1.2, 243.69 0.58" stroke="#000000" stroke-width="1" fill="none"></path></g></g><mask></mask><g stroke-linecap="round" transform="translate(3348.739637768186 1130.620278937081) rotate(0 224.3041012362728 99.34030494119645)"><path d="M0.57 -0.09 C152.62 4.48, 307.79 5.14, 449.35 -1.9 M-0.56 -0.97 C101.59 -0.15, 201.91 1.17, 449.23 -0.27 M452.32 2.74 C449.56 48.69, 448.99 103.38, 446.68 200.59 M446.96 -0.79 C450.55 41.11, 449.79 84.05, 447.2 198.41 M450.5 199.65 C348.8 197.17, 248.1 195.11, -1.2 199.01 M448.26 199.44 C307.27 193.72, 165.53 193.79, 0.23 198.97 M-0.88 196.5 C0.69 128.11, -0.85 55.61, 1.62 3.35 M-1.05 200.45 C-1.34 144.95, -1.64 88.44, -1.82 0.19" stroke="#000000" stroke-width="1" fill="none"></path></g><g transform="translate(3423.043739004459 1217.4605838782772) rotate(0 150 12.5)"><text x="150" y="18" font-family="Virgil, Segoe UI Emoji" font-size="20px" fill="#000000" text-anchor="middle" style="white-space: pre;" direction="ltr">Redirect to the response URL</text></g><g stroke-linecap="round" transform="translate(3910.168209196757 1132.0488503656525) rotate(0 224.3041012362728 99.34030494119645)"><path d="M-1.21 1.83 C133.25 -4.53, 263.57 -3.14, 448.29 -1.12 M-0.51 0.46 C90.56 3.56, 179.41 4.13, 448.6 0.9 M447.74 3.01 C446.39 75.1, 444.86 147.42, 448.88 195.37 M448.76 -0.82 C449.01 51.44, 448.92 101.98, 447.56 200.63 M450.12 197.39 C290.34 200.73, 134.78 202.31, -1.79 197.99 M448.98 197.8 C279.17 194.71, 109.89 194.74, 0.88 198.47 M0.48 200.71 C-0.4 153.24, -3.01 102.07, -1.6 -2.11 M-0.67 197.72 C-1.08 121.7, 1.53 43.19, 1.33 0.89" stroke="#000000" stroke-width="1" fill="none"></path></g><g transform="translate(3995.9723104330296 1218.8891553068488) rotate(0 138.5 12.5)"><text x="138.5" y="18" font-family="Virgil, Segoe UI Emoji" font-size="20px" fill="#000000" text-anchor="middle" style="white-space: pre;" direction="ltr">Return the fetched content</text></g><g stroke-linecap="round"><g transform="translate(3853.22585427447 948.9334578034411) rotate(0 -84.76818057143282 88.28083019448178)"><path d="M-2.74 -2.08 C-31.16 26.95, -140.2 146.09, -167.87 175.26 M0.97 2.96 C-28.13 32.34, -141.77 150.05, -170.5 178.64" stroke="#000000" stroke-width="1" fill="none"></path></g><g transform="translate(3853.22585427447 948.9334578034411) rotate(0 -84.76818057143282 88.28083019448178)"><path d="M-161.04 150.3 C-163.41 159.57, -171.65 174.18, -174.02 176.52 M-159.02 151.97 C-162.07 162.63, -165 170.12, -171.25 178.21" stroke="#000000" stroke-width="1" fill="none"></path></g><g transform="translate(3853.22585427447 948.9334578034411) rotate(0 -84.76818057143282 88.28083019448178)"><path d="M-146.4 164.68 C-154.66 167.99, -168.67 176.93, -174.02 176.52 M-144.38 166.35 C-152.71 171.92, -160.73 174.42, -171.25 178.21" stroke="#000000" stroke-width="1" fill="none"></path></g></g><mask></mask><g stroke-linecap="round"><g transform="translate(3851.7972828458987 954.6477435177269) rotate(0 88.73908838795751 85.93841499445693)"><path d="M-0.73 -0.45 C28.51 28.72, 143.33 143.98, 172.68 172.93 M4.07 -3.17 C34.48 26.42, 149.86 145.34, 178.21 175.04" stroke="#000000" stroke-width="1" fill="none"></path></g><g transform="translate(3851.7972828458987 954.6477435177269) rotate(0 88.73908838795751 85.93841499445693)"><path d="M150.6 159.58 C152.52 166.22, 158.44 165.22, 180.12 177.61 M151.23 163.73 C159.84 165.15, 165.08 168.45, 179.71 174.08" stroke="#000000" stroke-width="1" fill="none"></path></g><g transform="translate(3851.7972828458987 954.6477435177269) rotate(0 88.73908838795751 85.93841499445693)"><path d="M165.37 145.33 C164.1 154.77, 167.03 156.66, 180.12 177.61 M166 149.48 C170.45 154.88, 171.66 162.07, 179.71 174.08" stroke="#000000" stroke-width="1" fill="none"></path></g></g><mask></mask><g transform="translate(3701.6821375265067 1006.4552785263634) rotate(0 17 12.5)"><text x="0" y="18" font-family="Virgil, Segoe UI Emoji" font-size="20px" fill="#000000" text-anchor="start" style="white-space: pre;" direction="ltr">Yes</text></g><g transform="translate(3964.2073256850335 994.7915863396205) rotate(0 13 12.5)"><text x="0" y="18" font-family="Virgil, Segoe UI Emoji" font-size="20px" fill="#000000" text-anchor="start" style="white-space: pre;" direction="ltr">No</text></g><g stroke-linecap="round" transform="translate(2472.541951879268 1526.675745546101) rotate(0 163.5 148)"><path d="M165.36 1.28 C217.35 48.27, 273.82 99.88, 329.3 150.57 M164.18 0.28 C216.16 45.72, 266.85 93.32, 327.7 148.2 M325.17 145.7 C266.49 207.7, 200.27 264.34, 161.31 297.27 M328.46 149.88 C262.24 204.25, 197.65 264.57, 162.54 296.14 M162.86 293.3 C118.45 258.55, 81.15 220.58, -0.66 151.88 M163.24 294.81 C103.14 238.95, 44.02 182.53, 0.61 149.7 M0.59 151.05 C33 119.93, 67.81 84.22, 162.93 -2.63 M-0.8 150.35 C60.79 93.83, 123.42 37.91, 162.74 0.73" stroke="#000000" stroke-width="1" fill="none"></path></g><g transform="translate(2557.541951879268 1649.675745546101) rotate(0 78.5 25)"><text x="78.5" y="18" font-family="Virgil, Segoe UI Emoji" font-size="20px" fill="#000000" text-anchor="middle" style="white-space: pre;" direction="ltr">Is the response</text><text x="78.5" y="43" font-family="Virgil, Segoe UI Emoji" font-size="20px" fill="#000000" text-anchor="middle" style="white-space: pre;" direction="ltr">redirected?</text></g><g stroke-linecap="round" transform="translate(2130.1682091967577 1997.7631360799378) rotate(0 224.3041012362728 99.34030494119645)"><path d="M0.06 0.16 C119.23 -3.75, 240.02 -3.25, 448.31 0.97 M0.42 0.27 C155.26 1.89, 309.96 2.26, 449.19 0.18 M451.04 -0.9 C444.04 63.88, 449.9 124.13, 447.54 194.74 M448.64 1.4 C446.01 76.78, 445.29 155.23, 448.23 197.9 M448.03 199.71 C287.73 200.42, 129.56 201.29, -0.12 197.85 M448.01 199.56 C320.42 199.78, 193.3 199.22, 0.3 197.99 M2.47 199.67 C0.09 124.81, 0.24 44.7, 3.91 2.52 M0.28 197.59 C-3.07 136.21, -3.39 72.06, 1.16 1.19" stroke="#000000" stroke-width="1" fill="none"></path></g><g transform="translate(2204.4723104330305 2084.603441021134) rotate(0 150 12.5)"><text x="150" y="18" font-family="Virgil, Segoe UI Emoji" font-size="20px" fill="#000000" text-anchor="middle" style="white-space: pre;" direction="ltr">Redirect to the response URL</text></g><g stroke-linecap="round" transform="translate(2691.5967806253284 1999.1917075085094) rotate(0 224.3041012362728 99.34030494119645)"><path d="M0.72 -1 C131.55 -2.22, 257.84 -1.36, 447.81 -1.64 M-0.26 0.77 C165.03 -1.79, 332.02 -2.45, 448.65 -0.12 M449.63 -3 C448.62 43.21, 448.15 89.87, 449.43 196.92 M447.05 0.11 C448.24 46.19, 449.01 94.13, 447.34 196.9 M450.15 199.45 C303.11 199.73, 159.69 199.9, -0.2 199.11 M449.41 198.03 C290.59 201.16, 131.96 200.11, -0.32 199.5 M-0.68 197.06 C2.83 123.26, 6.71 48.1, -2.16 2.76 M-1.57 198.99 C4.95 121.4, 4.66 42.95, 0.04 0.27" stroke="#000000" stroke-width="1" fill="none"></path></g><g transform="translate(2777.400881861601 2086.0320124497057) rotate(0 138.5 12.5)"><text x="138.5" y="18" font-family="Virgil, Segoe UI Emoji" font-size="20px" fill="#000000" text-anchor="middle" style="white-space: pre;" direction="ltr">Return the fetched content</text></g><g stroke-linecap="round"><g transform="translate(2634.6544257030414 1816.0763149462978) rotate(0 -81.78739268385948 90.17347170946857)"><path d="M-2.08 2.45 C-29.53 31.99, -137.45 146.28, -164.66 175.51 M1.98 1.32 C-25.61 31.47, -137.53 150.34, -165.56 179.03" stroke="#000000" stroke-width="1" fill="none"></path></g><g transform="translate(2634.6544257030414 1816.0763149462978) rotate(0 -81.78739268385948 90.17347170946857)"><path d="M-149.99 155.1 C-157.74 162.2, -158.05 170.89, -163.33 180.97 M-152.42 150.97 C-157.27 160.25, -161.67 167.76, -165.15 177.3" stroke="#000000" stroke-width="1" fill="none"></path></g><g transform="translate(2634.6544257030414 1816.0763149462978) rotate(0 -81.78739268385948 90.17347170946857)"><path d="M-135.16 169.28 C-147.2 171.89, -151.97 176.32, -163.33 180.97 M-137.58 165.15 C-147.01 170.07, -155.78 173.41, -165.15 177.3" stroke="#000000" stroke-width="1" fill="none"></path></g></g><mask></mask><g stroke-linecap="round"><g transform="translate(2633.2258542744703 1821.7906006605836) rotate(0 88.54165786387625 87.76674718973891)"><path d="M1.61 -0.56 C29.94 29.13, 144.06 145.92, 172.57 175.41 M-0.96 -3.34 C28.04 27.06, 148.12 148.34, 178.04 178.87" stroke="#000000" stroke-width="1" fill="none"></path></g><g transform="translate(2633.2258542744703 1821.7906006605836) rotate(0 88.54165786387625 87.76674718973891)"><path d="M150.14 163.54 C160.91 168.4, 172.93 174.3, 175.27 180.71 M152.15 166.53 C156.64 168.29, 166.01 173.49, 178.84 178.93" stroke="#000000" stroke-width="1" fill="none"></path></g><g transform="translate(2633.2258542744703 1821.7906006605836) rotate(0 88.54165786387625 87.76674718973891)"><path d="M164.76 149.14 C169.5 159.84, 175.77 171.4, 175.27 180.71 M166.77 152.13 C167.58 157.62, 173.15 166.57, 178.84 178.93" stroke="#000000" stroke-width="1" fill="none"></path></g></g><mask></mask><g transform="translate(2483.1107089550783 1873.59813566922) rotate(0 17 12.5)"><text x="0" y="18" font-family="Virgil, Segoe UI Emoji" font-size="20px" fill="#000000" text-anchor="start" style="white-space: pre;" direction="ltr">Yes</text></g><g transform="translate(2745.635897113605 1861.9344434824775) rotate(0 13 12.5)"><text x="0" y="18" font-family="Virgil, Segoe UI Emoji" font-size="20px" fill="#000000" text-anchor="start" style="white-space: pre;" direction="ltr">No</text></g><g stroke-linecap="round"><g transform="translate(2632.075280894321 1334.215334794174) rotate(0 1.1794601389187847 96.5963516011551)"><path d="M-1.23 2.57 C-0.32 34.02, 2.5 157.14, 2.92 188 M3.3 1.5 C4.27 33.5, 2.54 160.16, 1.97 191.69" stroke="#000000" stroke-width="1" fill="none"></path></g><g transform="translate(2632.075280894321 1334.215334794174) rotate(0 1.1794601389187847 96.5963516011551)"><path d="M-4.2 166.75 C-5.76 170.47, -4.13 178.71, -0.16 193.48 M-6.63 161.68 C-4.55 173.93, 0.35 184.9, 3.45 190.57" stroke="#000000" stroke-width="1" fill="none"></path></g><g transform="translate(2632.075280894321 1334.215334794174) rotate(0 1.1794601389187847 96.5963516011551)"><path d="M16.32 167.05 C10.45 170.53, 7.76 178.71, -0.16 193.48 M13.89 161.98 C7.87 174.3, 4.69 185.14, 3.45 190.57" stroke="#000000" stroke-width="1" fill="none"></path></g></g><mask></mask><g stroke-linecap="round" transform="translate(712.5004067365498 1192.4780598150915) rotate(0 157 136.00160795520947)"><path d="M160.18 1.51 C200.29 34.85, 244.19 75.99, 311.16 140.19 M156.59 -0.23 C205.11 43.9, 253.53 82.58, 312.63 137.04 M313.85 133.57 C263.01 176.18, 217.67 219.39, 157.1 269.65 M314.53 138.38 C248.32 191.97, 187.29 248.4, 158.02 273.33 M159.2 272.83 C104.41 227.08, 47.02 179.91, 0.97 137.02 M157.54 271.41 C126.57 246.67, 96.13 218.13, -0.42 136.95 M2.98 140.44 C66.71 78.09, 129.02 26.39, 155.76 -0.8 M-1.15 135.83 C33.14 107.18, 62.94 79.98, 156.56 0.81" stroke="#000000" stroke-width="1" fill="none"></path></g><g transform="translate(746.500807774863 1290.9796677703011) rotate(0 122.5 37.5)"><text x="122.5" y="18" font-family="Virgil, Segoe UI Emoji" font-size="20px" fill="#000000" text-anchor="middle" style="white-space: pre;" direction="ltr">Subdomain is</text><text x="122.5" y="43" font-family="Virgil, Segoe UI Emoji" font-size="20px" fill="#000000" text-anchor="middle" style="white-space: pre;" direction="ltr">the main Webflow project</text><text x="122.5" y="68" font-family="Virgil, Segoe UI Emoji" font-size="20px" fill="#000000" text-anchor="middle" style="white-space: pre;" direction="ltr">wf.finsweet.com</text></g><g stroke-linecap="round" transform="translate(976.5798132191699 1630.4721347492246) rotate(0 224.3041012362728 99.34030494119645)"><path d="M0.71 0.16 C162.75 -0.42, 325.84 -0.79, 448.48 0.34 M0.07 0.8 C175.41 -2.52, 351.53 -1.94, 449.24 0.82 M451.66 -3.24 C449.58 77.78, 449.08 151.76, 447.86 201.17 M448.38 0.92 C445.55 70.36, 446.84 142.96, 447.73 196.69 M446.78 197.12 C284.93 193.39, 118.04 192.8, 0.44 200.38 M448.81 197.73 C306.3 195.43, 163.34 195.32, 0.05 198.38 M-2.07 199.14 C-2.37 137.92, -4.67 83.95, 0.43 2.73 M-0.8 200.37 C-2.98 139.84, -2.25 78.98, -1.26 0.75" stroke="#000000" stroke-width="1" fill="none"></path></g><g transform="translate(1065.8839144554427 1704.812439690421) rotate(0 135 25)"><text x="135" y="18" font-family="Virgil, Segoe UI Emoji" font-size="20px" fill="#000000" text-anchor="middle" style="white-space: pre;" direction="ltr">Return the requested path</text><text x="135" y="43" font-family="Virgil, Segoe UI Emoji" font-size="20px" fill="#000000" text-anchor="middle" style="white-space: pre;" direction="ltr">from the original URL</text></g><g stroke-linecap="round"><g transform="translate(873.9509808112414 1460.4892892336666) rotate(0 107.69810914996515 82.21685036329734)"><path d="M0.85 1.61 C37.13 28.61, 181.61 133.85, 217.52 160.56 M-2.13 0.02 C33.82 27.67, 179.43 138.19, 215.46 164.41" stroke="#000000" stroke-width="1" fill="none"></path></g><g transform="translate(873.9509808112414 1460.4892892336666) rotate(0 107.69810914996515 82.21685036329734)"><path d="M189.03 156.24 C195.68 156.92, 206.08 163.59, 211.96 167.17 M188.65 154.85 C193.45 159.05, 205.55 161.32, 214.22 164.47" stroke="#000000" stroke-width="1" fill="none"></path></g><g transform="translate(873.9509808112414 1460.4892892336666) rotate(0 107.69810914996515 82.21685036329734)"><path d="M201.3 139.79 C204.17 145.39, 210.95 156.9, 211.96 167.17 M200.92 138.4 C201.85 147.3, 210.32 154.45, 214.22 164.47" stroke="#000000" stroke-width="1" fill="none"></path></g></g><mask></mask><g transform="translate(916.8670133585288 1532.0287839321923) rotate(0 13 12.5)"><text x="0" y="18" font-family="Virgil, Segoe UI Emoji" font-size="20px" fill="#000000" text-anchor="start" style="white-space: pre;" direction="ltr">No</text></g><g stroke-linecap="round" transform="translate(290.865527504884 1626.1864201229118) rotate(0 224.3041012362728 99.34030494119645)"><path d="M-1.71 -1.28 C175.51 1.85, 350.82 3.35, 448.76 -0.11 M-0.57 -0.3 C172.02 -0.57, 345.2 -1.07, 449.49 0.48 M448.57 -1.1 C452.11 59.92, 449.04 117.81, 451.63 197.66 M450.4 0.4 C449.29 59.6, 449.74 117.66, 446.88 200.1 M450.46 200.11 C335.03 201.34, 222.76 198.25, 1.49 199.93 M449.47 199.61 C290.97 196.9, 131.28 195.27, 0.4 198.14 M-0.1 199.95 C4.79 121.37, 5.28 46.09, 1.81 -0.31 M0.96 200.41 C-2.59 120.1, -0.32 41.34, -0.31 0.67" stroke="#000000" stroke-width="1" fill="none"></path></g><g transform="translate(338.1696287411568 1700.5267250641082) rotate(0 177 25)"><text x="177" y="18" font-family="Virgil, Segoe UI Emoji" font-size="20px" fill="#000000" text-anchor="middle" style="white-space: pre;" direction="ltr">Redirect to the correspondent path</text><text x="177" y="43" font-family="Virgil, Segoe UI Emoji" font-size="20px" fill="#000000" text-anchor="middle" style="white-space: pre;" direction="ltr">under finsweet.com/*</text></g><g stroke-linecap="round"><g transform="translate(861.0938379540985 1466.2035749479523) rotate(0 -111.7272068424893 74.12345173972449)"><path d="M2.47 -0.73 C-34.54 23.88, -186.1 123.43, -223.87 148.39 M0.36 -3.59 C-36.82 21.4, -188.2 125.85, -225.92 151.84" stroke="#000000" stroke-width="1" fill="none"></path></g><g transform="translate(861.0938379540985 1466.2035749479523) rotate(0 -111.7272068424893 74.12345173972449)"><path d="M-209.57 127.89 C-212.96 133.5, -216.09 142.87, -226.93 155.08 M-210.08 127.56 C-215.97 136.67, -220.39 143.22, -225.2 153.09" stroke="#000000" stroke-width="1" fill="none"></path></g><g transform="translate(861.0938379540985 1466.2035749479523) rotate(0 -111.7272068424893 74.12345173972449)"><path d="M-197.93 144.79 C-204.14 146.63, -210 152.04, -226.93 155.08 M-198.43 144.46 C-208.26 148.22, -216.49 149.25, -225.2 153.09" stroke="#000000" stroke-width="1" fill="none"></path></g></g><mask></mask><g transform="translate(785.4384419299572 1533.4573553607638) rotate(0 17 12.5)"><text x="0" y="18" font-family="Virgil, Segoe UI Emoji" font-size="20px" fill="#000000" text-anchor="start" style="white-space: pre;" direction="ltr">Yes</text></g><g stroke-linecap="round"><g transform="translate(867.2972828458976 946.8064722478383) rotate(0 1.7431161818733472 121.9706821675386)"><path d="M2.63 -0.32 C3.5 40.66, 2.62 205.96, 3.28 246.91 M0.61 -2.97 C1.19 37.07, -0.41 200.67, 0.49 242.55" stroke="#000000" stroke-width="1" fill="none"></path></g><g transform="translate(867.2972828458976 946.8064722478383) rotate(0 1.7431161818733472 121.9706821675386)"><path d="M-10.35 212.96 C-5.58 224, -5.36 223.97, -2.27 239.78 M-10.52 216.11 C-8.5 220.13, -2.93 228.73, 1.71 244.53" stroke="#000000" stroke-width="1" fill="none"></path></g><g transform="translate(867.2972828458976 946.8064722478383) rotate(0 1.7431161818733472 121.9706821675386)"><path d="M10.17 212.88 C10.21 224.32, 5.68 224.31, -2.27 239.78 M10 216.03 C7.13 220.4, 7.81 229.03, 1.71 244.53" stroke="#000000" stroke-width="1" fill="none"></path></g></g><mask></mask><g transform="translate(899.7241562156717 1049.1716410750496) rotate(0 13 12.5)"><text x="0" y="18" font-family="Virgil, Segoe UI Emoji" font-size="20px" fill="#000000" text-anchor="start" style="white-space: pre;" direction="ltr">No</text></g></svg>